<svg width="18" height="19" viewBox="0 0 18 19" fill="none" xmlns="http://www.w3.org/2000/svg">
<path d="M10.2024 0.865346C9.87199 0.568506 9.44352 0.404297 8.99938 0.404297C8.55523 0.404297 8.12676 0.568506 7.79637 0.865346L1.19638 6.79575C1.00872 6.9645 0.858653 7.17082 0.755906 7.40133C0.65316 7.63184 0.600033 7.88138 0.599976 8.13375V16.5997C0.599976 17.0771 0.789618 17.535 1.12718 17.8725C1.46475 18.2101 1.92259 18.3997 2.39998 18.3997H4.79998C5.27736 18.3997 5.7352 18.2101 6.07277 17.8725C6.41033 17.535 6.59998 17.0771 6.59998 16.5997V11.7997C6.59998 11.6406 6.66319 11.488 6.77571 11.3755C6.88823 11.263 7.04085 11.1997 7.19998 11.1997H10.8C10.9591 11.1997 11.1117 11.263 11.2242 11.3755C11.3368 11.488 11.4 11.6406 11.4 11.7997V16.5997C11.4 17.0771 11.5896 17.535 11.9272 17.8725C12.2647 18.2101 12.7226 18.3997 13.2 18.3997H15.6C16.0774 18.3997 16.5352 18.2101 16.8728 17.8725C17.2103 17.535 17.4 17.0771 17.4 16.5997V8.13375C17.3999 7.88138 17.3468 7.63184 17.244 7.40133C17.1413 7.17082 16.9912 6.9645 16.8036 6.79575L10.2036 0.865346H10.2024Z" fill="#846046"/>
</svg>
