<svg width="17" height="16" viewBox="0 0 17 16" fill="none" xmlns="http://www.w3.org/2000/svg">
<path d="M6.83408 2.58157C7.46659 2.55897 8.07753 2.28927 8.58111 1.81035L8.57369 1.81698C9.13192 1.31742 9.79667 1.03736 10.4829 1.01263H10.4882C10.8379 0.964479 11.1917 0.99318 11.5335 1.09744L11.5128 1.09214C11.7722 1.1849 11.9124 1.32404 11.9337 1.50955C11.9655 1.68358 11.8912 1.82581 11.711 1.93624C11.5031 2.0586 11.278 2.12926 11.0485 2.14428H11.0437C10.7781 2.21477 10.5011 2.17136 10.2576 2.02104L10.2645 2.02502C10.1972 1.98399 10.1372 1.92623 10.0882 1.85526C10.0393 1.78429 10.0024 1.70161 9.9799 1.61225L9.97884 1.60761C9.71382 1.63411 9.54703 1.70699 9.47848 1.82625C9.41555 1.92106 9.3844 2.04262 9.39155 2.16548V2.16416C9.42336 2.34967 9.59297 2.51531 9.9004 2.66107C10.1569 2.76178 10.4516 2.82009 10.757 2.82009C10.9085 2.82009 11.058 2.80551 11.2032 2.77835L11.1868 2.781H11.2038C11.675 2.781 12.1128 2.59879 12.4738 2.28872L12.4663 2.29468C12.5703 2.19393 12.6508 2.06027 12.6996 1.90755C12.7483 1.75483 12.7635 1.5886 12.7436 1.42607L12.7441 1.43137C12.6805 1.03384 12.4132 0.699686 11.9421 0.428921C11.2986 0.129888 10.6051 0.0387315 9.92584 0.163899L9.9481 0.160586C8.84667 0.29133 8.14489 0.582634 7.84276 1.0345C7.42651 1.54485 6.86643 1.83017 6.28337 1.8289H6.26058H6.26164C6.0213 1.87523 5.77572 1.85372 5.54289 1.76596L5.55456 1.76994C5.48345 1.74807 5.41788 1.70421 5.36388 1.64238C5.30989 1.58056 5.26919 1.50276 5.24554 1.41613L5.24448 1.41216C5.23914 1.34266 5.25244 1.27292 5.28228 1.21391C5.31212 1.1549 5.35681 1.10996 5.40932 1.08618L5.41091 1.08551C5.54289 1.00998 5.69661 0.956979 5.85774 0.937102L5.86357 0.936439C6.03521 0.922908 6.20752 0.9338 6.37719 0.968905L6.36393 0.966917C6.51447 0.990769 6.65175 1.03649 6.78002 1.10274L6.76889 1.0981C6.82722 1.07185 6.87909 1.0271 6.91942 0.968242L6.91995 0.96758C6.93306 0.946588 6.94204 0.922046 6.94619 0.895925C6.95033 0.869805 6.94951 0.842834 6.9438 0.817179V0.818504C6.912 0.672742 6.79557 0.570046 6.5945 0.510416C6.35088 0.445852 6.10065 0.429531 5.85297 0.462049L5.86304 0.460724C5.31215 0.52698 4.99165 0.679368 4.90154 0.917888C4.82038 1.0931 4.78412 1.2952 4.79765 1.49696V1.49365C4.84413 1.69567 4.92921 1.88053 5.04556 2.03231C5.1619 2.18409 5.30603 2.29823 5.46551 2.36491L5.47293 2.36756C5.77028 2.5226 6.11534 2.61271 6.47789 2.61271C6.60245 2.61271 6.7249 2.60211 6.84469 2.58157L6.8309 2.58356L6.83408 2.58157ZM14.2865 5.72076C13.9473 5.82633 13.5817 5.91909 13.1899 5.99903C12.798 6.07898 12.3849 6.14435 11.9506 6.19515C11.5163 6.24815 11.0555 6.29166 10.5683 6.32567C10.081 6.35969 9.57778 6.37625 9.05868 6.37537C8.51839 6.37537 8.0046 6.3588 7.51731 6.32567C7.03002 6.29255 6.56659 6.24617 6.127 6.18654C5.68742 6.12691 5.27169 6.05756 4.87981 5.97849C4.48793 5.89943 4.12237 5.81241 3.78314 5.71745C3.27528 5.56972 2.78109 5.35633 2.30856 5.08073L2.35467 5.10525C2.08791 4.96405 1.85387 4.74121 1.67409 4.45726L1.67144 4.45263C1.7324 5.02706 1.81297 5.52796 1.91738 6.01759L1.90201 5.93278C2.02392 6.51914 2.14636 6.99287 2.28683 7.45533L2.25979 7.35396C2.09777 7.47603 1.94517 7.61666 1.80395 7.77402L1.80661 7.77071C1.66184 7.93246 1.52799 8.10885 1.40642 8.29811L1.40112 8.30672C1.17125 8.66169 0.996185 9.067 0.884856 9.50197L0.879026 9.52847C0.772562 9.95052 0.72417 10.3921 0.735914 10.8344V10.8284C0.754465 11.2697 0.855174 11.6771 1.01949 12.0329L1.01419 12.0197C1.18344 12.3812 1.40422 12.701 1.66561 12.9632L1.67091 12.9685C1.92631 13.2273 2.22419 13.4125 2.54337 13.5111L2.55874 13.5151C2.88848 13.6023 3.229 13.6046 3.55946 13.5217L3.54356 13.525C3.70152 13.4932 3.84304 13.4409 3.97661 13.3706L3.96442 13.3766C4.10753 13.3037 4.24782 13.2408 4.38528 13.1878H4.36831C4.09465 13.1882 3.82329 13.1253 3.56795 13.0023L3.58332 13.0089C3.31482 12.876 3.06379 12.6935 2.8386 12.4676L2.8439 12.4729C2.59486 12.2396 2.37941 11.9551 2.20679 11.6314L2.20043 11.6188C2.02588 11.2893 1.91467 10.9138 1.87551 10.5216L1.87445 10.5091C1.81002 10.14 1.81093 9.75787 1.8771 9.38934L1.87445 9.40656C1.9412 9.04424 2.06146 8.70068 2.22905 8.39351L2.22375 8.40345C2.26615 8.35045 2.30591 8.29766 2.34301 8.2451C2.38011 8.19254 2.41987 8.13975 2.46227 8.08675C2.55768 8.39153 2.66086 8.68946 2.77182 8.98054C2.88277 9.27162 3.00292 9.55652 3.13225 9.83524C3.38632 10.3251 3.64586 10.7984 3.91088 11.2551C4.17591 11.7118 4.44058 12.1712 4.70489 12.6332C4.80454 12.8625 4.90366 13.1374 4.98741 13.4223L4.99907 13.4674C5.06638 13.6907 5.12946 13.9636 5.17663 14.2439L5.18193 14.2817C5.36056 14.5838 5.57046 14.8409 5.80898 15.0509L5.81746 15.0582C6.05492 15.2649 6.32895 15.4338 6.6226 15.5478L6.6438 15.5551C6.96872 15.7002 7.35406 15.8214 7.75159 15.897L7.78711 15.9023C8.1433 15.9718 8.55408 16.0116 8.97229 16.0116H9.05815C9.48333 16.011 9.9078 15.9685 10.3276 15.8844L10.2815 15.8917C10.7039 15.8124 11.1199 15.6865 11.5245 15.5153L11.4736 15.5339C11.7567 15.4175 12.025 15.2508 12.2702 15.039L12.2596 15.0476C12.501 14.8368 12.7112 14.5751 12.8808 14.2744L12.8861 14.2644H12.9338C12.9762 14.0259 13.0317 13.7611 13.1003 13.47C13.1793 13.1414 13.2736 12.8585 13.3881 12.5908L13.378 12.616C13.6321 12.1526 13.8916 11.6957 14.1567 11.2452C14.4217 10.7946 14.6865 10.318 14.9512 9.81536C15.2958 9.03803 15.5825 8.22275 15.8078 7.3798L15.8327 7.27313C16.0684 6.39885 16.2519 5.50394 16.3818 4.59574L16.3966 4.4725C16.2059 4.76167 15.9657 4.99373 15.6938 5.15162L15.6816 5.15825C15.2492 5.41618 14.7921 5.60346 14.3215 5.71546L14.2855 5.72275L14.2865 5.72076ZM3.78367 4.34927C4.1229 4.45484 4.48846 4.54759 4.88034 4.62754C5.27222 4.70749 5.6853 4.77286 6.11958 4.82366C6.55387 4.87666 7.012 4.91642 7.49399 4.94292C7.97598 4.96942 8.48076 4.98267 9.00833 4.98267C9.54862 4.98267 10.0598 4.96942 10.5418 4.94292C11.0237 4.91642 11.4819 4.87666 11.9162 4.82366C12.3504 4.77065 12.7609 4.70131 13.1475 4.61562C13.534 4.52993 13.9021 4.44048 14.2515 4.34728C14.8259 4.19377 15.38 3.93948 15.8973 3.59197L15.8645 3.61251C16.2192 3.34792 16.3966 3.08312 16.3966 2.8181C16.3925 2.70905 16.3699 2.60234 16.3304 2.50495C16.291 2.40755 16.2355 2.32168 16.1677 2.25294L16.1666 2.25161C15.9758 2.04583 15.7576 1.88327 15.5221 1.77126L15.5072 1.7653C15.5708 1.82029 15.6233 1.88986 15.6625 1.97069L15.6641 1.97334C15.7053 2.05341 15.7273 2.14649 15.7277 2.24168C15.7277 2.51995 15.5636 2.7715 15.2353 2.99633C14.8091 3.26268 14.3146 3.47536 13.7957 3.60389L13.7581 3.61184C13.1436 3.77086 12.4444 3.90668 11.6607 4.01931C10.9133 4.12731 10.0472 4.18893 9.16946 4.18893L9.04914 4.18827H9.0555H8.96911C8.09029 4.18827 7.22208 4.13062 6.36711 4.01799L6.47365 4.02925C5.72729 3.93852 4.98551 3.79629 4.2517 3.60323L4.38422 3.63238C3.87006 3.49169 3.37201 3.27111 2.90168 2.97579L2.93772 2.99633C2.60945 2.7715 2.44531 2.52658 2.44531 2.26155V2.26089C2.44531 2.13699 2.47181 2.02104 2.51846 1.921L2.51687 1.92431C2.58418 1.79445 2.67164 1.68778 2.77447 1.60893L2.77818 1.60628C2.45127 1.75556 2.13873 1.95001 1.84636 2.18602L1.86491 2.17211C1.68416 2.30462 1.56278 2.54248 1.55536 2.81677V2.8181C1.57657 3.09637 1.76986 3.3678 2.13523 3.63238C2.61068 3.94643 3.1614 4.19489 3.7418 4.34198L3.78155 4.35059L3.78367 4.34927Z" fill="white"/>
</svg>
