<svg width="12" height="16" viewBox="0 0 12 16" fill="none" xmlns="http://www.w3.org/2000/svg">
<path d="M11.4386 4.3577L11.3511 3.91643C11.2723 3.52022 11.0941 3.14588 10.6879 3.00277C10.5574 2.95705 10.4096 2.93784 10.3103 2.84309C10.2096 2.74835 10.1804 2.6006 10.1572 2.46411C10.1141 2.21366 10.0744 1.96322 10.03 1.71343C9.99224 1.4981 9.96242 1.25627 9.86436 1.05949C9.73517 0.794467 9.46882 0.639429 9.20446 0.537395C9.06877 0.486662 8.93029 0.443747 8.7897 0.408859C8.12714 0.234607 7.43146 0.170339 6.75101 0.133236C5.93393 0.0883102 5.11467 0.102038 4.29955 0.174314C3.69331 0.229306 3.05395 0.296225 2.47752 0.505592C2.26683 0.582449 2.04951 0.675207 1.88917 0.837533C1.69239 1.03763 1.62879 1.3477 1.7719 1.59682C1.87393 1.77373 2.04686 1.89895 2.23039 1.98111C2.46891 2.08844 2.71869 2.16927 2.97444 2.2236C3.68669 2.38129 4.42478 2.44291 5.15226 2.46875C5.95926 2.50188 6.76691 2.47537 7.57059 2.39057C7.7687 2.3687 7.9668 2.3422 8.16424 2.31172C8.39746 2.27594 8.5472 1.97183 8.4783 1.75915C8.39614 1.50539 8.17551 1.40733 7.92572 1.44576C7.61697 1.49479 7.28967 1.51732 7.01007 1.54249C6.23024 1.5955 5.44776 1.59682 4.66727 1.54647C4.41117 1.52952 4.15556 1.50588 3.90069 1.47558C3.84371 1.46895 3.78143 1.45901 3.72975 1.45172C3.56875 1.42787 3.40908 1.39872 3.25006 1.36559C3.17652 1.3477 3.17652 1.24302 3.25006 1.22513H3.25338C3.4369 1.18538 3.62242 1.15357 3.8086 1.12773H3.80992C3.89672 1.12177 3.98418 1.10653 4.07097 1.09593C4.82491 1.01768 5.58332 0.991115 6.34089 1.01642C6.78745 1.02901 7.23335 1.06081 7.67727 1.11183L7.82833 1.13237C8.00523 1.15887 8.18147 1.19068 8.35705 1.22844C8.61677 1.28476 8.95004 1.30331 9.06598 1.58755C9.10242 1.67832 9.11899 1.77836 9.13953 1.87311L9.35088 2.85634C9.35537 2.87743 9.35546 2.8992 9.35116 2.92032C9.34686 2.94145 9.33826 2.96145 9.32589 2.97911C9.31352 2.99676 9.29765 3.01167 9.27927 3.02292C9.26088 3.03418 9.24038 3.04152 9.21903 3.04451H9.21705C9.19253 3.04848 9.16735 3.05113 9.14284 3.05445C8.10066 3.18741 7.05096 3.2527 6.00034 3.2499C4.95933 3.24883 3.91945 3.18155 2.88698 3.04848C2.79422 3.03722 2.69285 3.02066 2.6107 3.00873C2.3947 2.97693 2.1807 2.93717 1.96603 2.90206C1.70564 2.85899 1.45718 2.88086 1.22198 3.00873C1.02984 3.11474 0.87281 3.2764 0.774752 3.47318C0.672718 3.68255 0.642903 3.91047 0.597849 4.13574C0.552133 4.36101 0.481239 4.60417 0.508404 4.8354C0.566046 5.3343 0.914551 5.73979 1.41611 5.83056C3.89636 6.27319 6.42736 6.35708 8.93148 6.07968C8.97906 6.07427 9.02724 6.0796 9.07248 6.09528C9.11772 6.11097 9.15887 6.1366 9.19288 6.1703C9.2269 6.204 9.25292 6.2449 9.26903 6.28999C9.28514 6.33508 9.29092 6.38321 9.28595 6.43084L9.23891 6.89264L8.56443 13.4566C8.53726 13.7282 8.53329 14.0078 8.48161 14.2762C8.40078 14.6982 8.11522 14.9573 7.69847 15.052C7.31617 15.1388 6.92659 15.1845 6.53502 15.1878C6.10038 15.1905 5.66707 15.1713 5.23243 15.1733C4.76931 15.1759 4.20149 15.1335 3.84438 14.789C3.52966 14.4855 3.4866 14.0111 3.44353 13.601L2.9592 8.95451L2.74586 6.90456C2.72134 6.67201 2.55637 6.44409 2.29664 6.45535C2.07403 6.46529 1.82093 6.65412 1.84743 6.90523L1.99849 8.35291L2.62726 14.3901C2.72466 15.2806 3.4051 15.7603 4.24787 15.8955C4.73949 15.975 5.2437 15.9909 5.74326 15.9988C6.38329 16.0094 7.02995 16.0339 7.65938 15.918C8.59226 15.747 9.29258 15.1242 9.39262 14.1576C9.61789 11.9499 9.84515 9.74296 10.0711 7.53532L10.2135 6.15256C10.2205 6.08399 10.2495 6.01951 10.296 5.96867C10.3426 5.91783 10.4042 5.88334 10.4719 5.87031C10.7383 5.81863 10.9934 5.72985 11.1835 5.52711C11.485 5.20378 11.5453 4.78239 11.4386 4.35703V4.3577ZM10.4593 4.86919C10.3633 4.95996 10.2188 5.00236 10.0764 5.02357C8.47565 5.26142 6.85238 5.38135 5.23442 5.32834C4.07627 5.28859 2.93071 5.16005 1.78449 4.99839C1.67185 4.98249 1.55061 4.96195 1.47309 4.87913C1.32732 4.72276 1.39954 4.40871 1.43731 4.21988C1.47176 4.04762 1.53802 3.81639 1.74407 3.79187C2.06475 3.75411 2.43711 3.88993 2.75513 3.93764C3.13743 3.99594 3.52105 4.04298 3.90599 4.0781C5.54913 4.22784 7.2201 4.20398 8.85662 3.98534C9.15477 3.94559 9.45225 3.89921 9.74775 3.8462C10.0121 3.7985 10.3043 3.70972 10.4633 3.98269C10.5733 4.16887 10.5879 4.41799 10.5707 4.62802C10.5654 4.71974 10.5254 4.80601 10.4587 4.86919H10.4593ZM6.37866 7.45316C5.80753 7.69831 5.15955 7.97525 4.31877 7.97525C3.96735 7.9744 3.61767 7.92604 3.27922 7.83148L3.86028 13.7971C3.90334 14.3139 4.33533 14.7115 4.85411 14.7115C4.85411 14.7115 5.67767 14.7545 5.95263 14.7545C6.24879 14.7545 7.13596 14.7115 7.13596 14.7115C7.65474 14.7115 8.08606 14.3139 8.12913 13.7971L8.75193 7.2047C8.47095 7.10309 8.17481 7.04978 7.87603 7.04701C7.32876 7.04701 6.88816 7.23518 6.37866 7.45316V7.45316Z" fill="#3A3A3A"/>
</svg>
