<svg width="17" height="17" viewBox="0 0 17 17" fill="none" xmlns="http://www.w3.org/2000/svg">
<path d="M1.44627 6.8749V10.8964C1.44617 11.4244 1.55009 11.9473 1.7521 12.4352C1.95411 12.9231 2.25025 13.3665 2.62362 13.7399C2.99698 14.1133 3.44025 14.4096 3.92811 14.6117C4.41597 14.8138 4.93887 14.9178 5.46693 14.9178H8.3904C8.91846 14.9178 9.44136 14.8138 9.92922 14.6117C10.4171 14.4096 10.8604 14.1133 11.2337 13.7399C11.6071 13.3665 11.9032 12.9231 12.1052 12.4352C12.3072 11.9473 12.4112 11.4244 12.4111 10.8964V6.8757L1.44627 6.8749ZM9.79846 0.240061C9.91001 0.333476 9.97988 0.467375 9.9927 0.612304C10.0055 0.757232 9.96025 0.901319 9.86684 1.01287C9.3564 1.62109 9.2435 2.03612 9.40093 2.31439C9.45022 2.40106 9.8724 3.06812 9.9694 3.27404C10.1888 3.73916 10.2175 4.18996 10.0282 4.72265C9.88907 5.10525 9.68729 5.46206 9.43114 5.7785H12.5168C12.8642 5.79123 13.1163 5.87948 13.2721 6.04485C13.3596 6.13549 13.4216 6.24998 13.4605 6.38832L13.5082 6.38673C14.2354 6.38673 14.9328 6.6756 15.447 7.18978C15.9612 7.70397 16.25 8.40135 16.25 9.12852C16.25 9.85569 15.9612 10.5531 15.447 11.0673C14.9328 11.5814 14.2354 11.8703 13.5082 11.8703L13.416 11.8671C13.1904 13.0343 12.5655 14.0866 11.6486 14.8433C10.7317 15.6001 9.58002 16.014 8.39119 16.0142H5.46614C4.79409 16.0142 4.12862 15.8818 3.50774 15.6246C2.88686 15.3674 2.32272 14.9904 1.84755 14.5152C1.37238 14.0399 0.995475 13.4757 0.738365 12.8548C0.481256 12.2339 0.348976 11.5684 0.349081 10.8964V6.74133C0.333179 6.39707 0.398375 6.15298 0.543077 6.00987C0.688575 5.86676 0.903243 5.78964 1.18629 5.7793H3.53412C3.5647 5.72833 3.60337 5.68268 3.64861 5.64414C4.1336 5.23309 4.45004 4.80375 4.60905 4.35613C4.69969 4.10171 4.68936 3.95064 4.59156 3.74313C4.52955 3.61115 4.13917 2.99418 4.06125 2.85583C3.63271 2.09893 3.86885 1.23072 4.64006 0.310027C4.68542 0.252067 4.74197 0.203824 4.80635 0.168172C4.87074 0.132519 4.94163 0.110186 5.01483 0.102501C5.08802 0.094817 5.16201 0.101938 5.2324 0.123442C5.30278 0.144945 5.36812 0.180391 5.42452 0.227668C5.48093 0.274946 5.52724 0.333089 5.56071 0.398636C5.59417 0.464183 5.61411 0.535793 5.61933 0.609204C5.62454 0.682615 5.61494 0.756325 5.59108 0.825947C5.56722 0.895568 5.5296 0.959678 5.48045 1.01446C4.97001 1.62268 4.85791 2.03771 5.01533 2.31598C5.06383 2.40265 5.48681 3.06971 5.58381 3.27563C5.80245 3.74075 5.83187 4.19155 5.64185 4.72424C5.50292 5.10679 5.30141 5.46359 5.04555 5.78009H5.72771C5.75829 5.72913 5.79696 5.68348 5.8422 5.64493C6.3264 5.23309 6.64284 4.80375 6.80185 4.35613C6.89249 4.10171 6.88295 3.95064 6.78436 3.74313C6.72234 3.61115 6.33197 2.99418 6.25405 2.85583C5.82551 2.09893 6.06164 1.23072 6.83365 0.310027C6.87862 0.250967 6.9351 0.201646 6.99968 0.165051C7.06427 0.128456 7.1356 0.105348 7.20938 0.0971259C7.28315 0.0889037 7.35782 0.0957385 7.42888 0.117216C7.49993 0.138694 7.56589 0.174369 7.62275 0.22208C7.67962 0.269791 7.72621 0.328546 7.75971 0.394788C7.7932 0.461029 7.81291 0.53338 7.81763 0.607459C7.82235 0.681539 7.81199 0.755805 7.78717 0.825763C7.76235 0.895721 7.7236 0.959915 7.67325 1.01446C7.16361 1.62268 7.05071 2.03771 7.20813 2.31598C7.25743 2.40265 7.67961 3.06971 7.7766 3.27563C7.99604 3.74075 8.02467 4.19155 7.83464 4.72424C7.69572 5.10679 7.49421 5.46359 7.23834 5.78009H7.92131C7.95164 5.72919 7.99004 5.68354 8.035 5.64493C8.51999 5.23309 8.83564 4.80375 8.99465 4.35613C9.08529 4.10171 9.07575 3.95064 8.97716 3.74313C8.91514 3.61115 8.52556 2.99418 8.44685 2.85583C8.0191 2.09893 8.25444 1.23072 9.02645 0.310027C9.11984 0.198717 9.25358 0.129003 9.39832 0.116184C9.54305 0.103365 9.68696 0.148488 9.79846 0.241652V0.240061ZM13.5075 7.48313V10.7731C13.9437 10.7731 14.3621 10.5998 14.6706 10.2913C14.9791 9.98282 15.1524 9.5644 15.1524 9.12812C15.1524 8.69184 14.9791 8.27343 14.6706 7.96494C14.3621 7.65644 13.9437 7.48313 13.5075 7.48313V7.48313Z" fill="black"/>
</svg>
